<mxfile host="app.diagrams.net" modified="2023-08-04T11:35:52.886Z" agent="Mozilla/5.0 (Macintosh; Intel Mac OS X 10_15_7) AppleWebKit/537.36 (KHTML, like Gecko) Chrome/114.0.0.0 Safari/537.36" version="21.6.6" etag="5KJCsMmgLyFSHL-hDyfg" type="github">
  <diagram name="第 1 页" id="uL1fpck82wy_7PwVuU2z">
    <mxGraphModel>
      <root>
        <mxCell id="0" />
        <mxCell id="1" parent="0" />
      </root>
    </mxGraphModel>
  </diagram>
</mxfile>
